G04 MADE WITH FRITZING*
G04 WWW.FRITZING.ORG*
G04 DOUBLE SIDED*
G04 HOLES PLATED*
G04 CONTOUR ON CENTER OF CONTOUR VECTOR*
%ASAXBY*%
%FSLAX23Y23*%
%MOIN*%
%OFA0B0*%
%SFA1.0B1.0*%
%ADD10C,0.077444*%
%ADD11C,0.138425*%
%ADD12C,0.070000*%
%ADD13C,0.075000*%
%ADD14C,0.062992*%
%ADD15C,0.067278*%
%ADD16C,0.039370*%
%ADD17R,0.062992X0.062992*%
%ADD18C,0.024000*%
%LNCOPPER1*%
G90*
G70*
G54D10*
X536Y1255D03*
X636Y1255D03*
X736Y1255D03*
X836Y1255D03*
X936Y1255D03*
X1036Y1255D03*
X1136Y1255D03*
X1236Y1255D03*
X1336Y1253D03*
X1436Y1255D03*
X1536Y1255D03*
X1636Y1255D03*
X1736Y1255D03*
X1836Y1255D03*
X1936Y1255D03*
X2036Y1255D03*
X2136Y1255D03*
X2236Y1255D03*
X2337Y1255D03*
X2436Y1255D03*
X2436Y1355D03*
X2337Y1355D03*
X2236Y1355D03*
X2136Y1355D03*
X2036Y1355D03*
X1936Y1355D03*
X1836Y1355D03*
X1736Y1355D03*
X1636Y1355D03*
X1536Y1355D03*
X1436Y1355D03*
X1336Y1355D03*
X1236Y1355D03*
X1136Y1355D03*
X1036Y1355D03*
X936Y1355D03*
X836Y1355D03*
X736Y1355D03*
X636Y1355D03*
X536Y1355D03*
G54D11*
X936Y305D03*
X136Y305D03*
G54D12*
X936Y455D03*
X936Y555D03*
X936Y655D03*
X936Y755D03*
X936Y855D03*
X936Y955D03*
X136Y455D03*
X136Y555D03*
X136Y655D03*
G54D11*
X936Y1105D03*
G54D12*
X136Y755D03*
G54D11*
X136Y1105D03*
G54D12*
X136Y855D03*
X136Y955D03*
G54D13*
X1536Y1755D03*
X1936Y1755D03*
G54D14*
X1835Y1955D03*
X1736Y1955D03*
G54D13*
X1536Y1655D03*
X1936Y1655D03*
G54D14*
X2135Y1955D03*
X2036Y1955D03*
G54D13*
X1536Y1555D03*
X1936Y1555D03*
G54D14*
X1535Y1955D03*
X1436Y1955D03*
G54D15*
X1136Y155D03*
X1136Y255D03*
X1136Y355D03*
X1136Y455D03*
X1236Y155D03*
X1236Y255D03*
X1236Y355D03*
X1236Y455D03*
G54D13*
X1036Y1755D03*
X1036Y1855D03*
X1036Y1955D03*
G54D16*
X1381Y71D03*
X949Y191D03*
X277Y95D03*
G54D17*
X1835Y1955D03*
X2135Y1955D03*
X1535Y1955D03*
G54D18*
X836Y653D02*
X906Y654D01*
D02*
X836Y1154D02*
X836Y653D01*
D02*
X1237Y54D02*
X1237Y126D01*
D02*
X836Y54D02*
X1237Y54D01*
D02*
X836Y653D02*
X836Y54D01*
D02*
X915Y1233D02*
X836Y1154D01*
D02*
X973Y1823D02*
X1011Y1842D01*
D02*
X939Y1385D02*
X973Y1823D01*
D02*
X1423Y1227D02*
X1069Y503D01*
D02*
X1069Y383D02*
X1111Y365D01*
D02*
X1069Y503D02*
X1069Y383D01*
D02*
X1254Y232D02*
X1369Y86D01*
D02*
X1016Y1935D02*
X469Y1415D01*
D02*
X537Y355D02*
X536Y1224D01*
D02*
X469Y1295D02*
X510Y1270D01*
D02*
X469Y1415D02*
X469Y1295D01*
D02*
X1109Y160D02*
X968Y188D01*
D02*
X290Y109D02*
X537Y355D01*
D02*
X1237Y1654D02*
X1053Y1380D01*
D02*
X1422Y1932D02*
X1237Y1654D01*
D02*
X1712Y1944D02*
X1477Y1847D01*
D02*
X1237Y1455D02*
X1237Y1385D01*
D02*
X1477Y1847D02*
X1237Y1455D01*
D02*
X2077Y1919D02*
X1573Y1583D01*
D02*
X2112Y1941D02*
X2077Y1919D01*
D02*
X1573Y1583D02*
X1559Y1572D01*
D02*
X2036Y1981D02*
X2036Y2055D01*
D02*
X2237Y1856D02*
X2237Y1455D01*
D02*
X2237Y2055D02*
X2237Y1856D01*
D02*
X2036Y2055D02*
X2237Y2055D01*
D02*
X2237Y1455D02*
X1336Y1455D01*
D02*
X1336Y1455D02*
X1336Y1385D01*
G04 End of Copper1*
M02*