G04 MADE WITH FRITZING*
G04 WWW.FRITZING.ORG*
G04 DOUBLE SIDED*
G04 HOLES PLATED*
G04 CONTOUR ON CENTER OF CONTOUR VECTOR*
%ASAXBY*%
%FSLAX23Y23*%
%MOIN*%
%OFA0B0*%
%SFA1.0B1.0*%
%ADD10C,0.077444*%
%ADD11C,0.138425*%
%ADD12C,0.070000*%
%ADD13C,0.075000*%
%ADD14C,0.062992*%
%ADD15C,0.067278*%
%ADD16C,0.039370*%
%ADD17R,0.062992X0.062992*%
%ADD18C,0.024000*%
%LNCOPPER0*%
G90*
G70*
G54D10*
X536Y1255D03*
X636Y1255D03*
X736Y1255D03*
X836Y1255D03*
X936Y1255D03*
X1036Y1255D03*
X1136Y1255D03*
X1236Y1255D03*
X1336Y1253D03*
X1436Y1255D03*
X1536Y1255D03*
X1636Y1255D03*
X1736Y1255D03*
X1836Y1255D03*
X1936Y1255D03*
X2036Y1255D03*
X2136Y1255D03*
X2236Y1255D03*
X2337Y1255D03*
X2436Y1255D03*
X2436Y1355D03*
X2337Y1355D03*
X2236Y1355D03*
X2136Y1355D03*
X2036Y1355D03*
X1936Y1355D03*
X1836Y1355D03*
X1736Y1355D03*
X1636Y1355D03*
X1536Y1355D03*
X1436Y1355D03*
X1336Y1355D03*
X1236Y1355D03*
X1136Y1355D03*
X1036Y1355D03*
X936Y1355D03*
X836Y1355D03*
X736Y1355D03*
X636Y1355D03*
X536Y1355D03*
G54D11*
X936Y305D03*
X136Y305D03*
G54D12*
X936Y455D03*
X936Y555D03*
X936Y655D03*
X936Y755D03*
X936Y855D03*
X936Y955D03*
X136Y455D03*
X136Y555D03*
X136Y655D03*
G54D11*
X936Y1105D03*
G54D12*
X136Y755D03*
G54D11*
X136Y1105D03*
G54D12*
X136Y855D03*
X136Y955D03*
G54D13*
X1536Y1755D03*
X1936Y1755D03*
G54D14*
X1835Y1955D03*
X1736Y1955D03*
G54D13*
X1536Y1655D03*
X1936Y1655D03*
G54D14*
X2135Y1955D03*
X2036Y1955D03*
G54D13*
X1536Y1555D03*
X1936Y1555D03*
G54D14*
X1535Y1955D03*
X1436Y1955D03*
G54D15*
X1136Y155D03*
X1136Y255D03*
X1136Y355D03*
X1136Y455D03*
X1236Y155D03*
X1236Y255D03*
X1236Y355D03*
X1236Y455D03*
G54D13*
X1036Y1755D03*
X1036Y1855D03*
X1036Y1955D03*
G54D16*
X1381Y71D03*
X949Y191D03*
X277Y95D03*
G54D17*
X1835Y1955D03*
X2135Y1955D03*
X1535Y1955D03*
G54D18*
X1936Y1355D02*
X1936Y1726D01*
D02*
X1909Y1367D02*
X1936Y1355D01*
D02*
X1936Y1355D02*
X1909Y1367D01*
D02*
X1936Y1526D02*
X1936Y1355D01*
D02*
X737Y1224D02*
X738Y856D01*
D02*
X738Y856D02*
X906Y855D01*
D02*
X637Y1224D02*
X638Y756D01*
D02*
X638Y756D02*
X906Y755D01*
D02*
X235Y1455D02*
X535Y1455D01*
D02*
X535Y1455D02*
X536Y1385D01*
D02*
X236Y153D02*
X235Y1455D01*
D02*
X736Y153D02*
X236Y153D01*
D02*
X736Y454D02*
X736Y153D01*
D02*
X906Y455D02*
X736Y454D01*
D02*
X1936Y1583D02*
X1936Y1626D01*
D02*
X1638Y355D02*
X1265Y355D01*
D02*
X1636Y1224D02*
X1638Y355D01*
D02*
X1536Y1783D02*
X1535Y1928D01*
D02*
X1526Y1226D02*
X1246Y481D01*
D02*
X1816Y1935D02*
X1557Y1675D01*
D02*
X1651Y1381D02*
X1885Y1823D01*
D02*
X1885Y1823D02*
X2005Y1823D01*
D02*
X2005Y1823D02*
X2509Y1439D01*
D02*
X2509Y1439D02*
X2509Y1199D01*
D02*
X2509Y1199D02*
X1669Y311D01*
D02*
X1669Y311D02*
X1285Y95D01*
D02*
X1285Y95D02*
X1069Y95D01*
D02*
X1069Y95D02*
X1069Y191D01*
D02*
X1069Y191D02*
X1116Y235D01*
D02*
X1364Y63D02*
X1333Y47D01*
D02*
X1333Y47D02*
X1021Y47D01*
D02*
X1021Y47D02*
X1038Y955D01*
D02*
X1038Y955D02*
X1037Y1224D01*
D02*
X949Y172D02*
X949Y119D01*
D02*
X949Y119D02*
X296Y96D01*
D02*
X1043Y1727D02*
X1129Y1384D01*
G04 End of Copper0*
M02*