; NON-PLATED HOLES START AT T1
; THROUGH (PLATED) HOLES START AT T100
M48
INCH
T100C0.031497
T101C0.039370
T102C0.015748
T103C0.098425
T104C0.035000
T105C0.038556
T106C0.033944
%
T100
X020364Y019545
X017364Y019545
X021348Y019545
X014364Y019545
X018348Y019545
X015348Y019545
T101
X001364Y005545
X009364Y004545
X001364Y006545
X009364Y005545
X001364Y007545
X009364Y006545
X001364Y008545
X009364Y007545
X001364Y009545
X009364Y008545
X001364Y004545
X009364Y009545
T102
X002769Y000951
X013809Y000711
X009489Y001911
T103
X009364Y011045
X009364Y003045
X001364Y011045
X001364Y003045
T104
X015364Y017545
X019364Y015545
X010364Y017545
X019364Y016545
X010364Y018545
X019364Y017545
X010364Y019545
X015364Y015545
X015364Y016545
T105
X005364Y013545
X007364Y013545
X009364Y013545
X006364Y013545
X008364Y013545
X024364Y012545
X020364Y012545
X021359Y012545
X010364Y013545
X012364Y013545
X011364Y013545
X013364Y013545
X015364Y013545
X017364Y013545
X019364Y013545
X023367Y012545
X016364Y013545
X018364Y013545
X022363Y012545
X020364Y013545
X024364Y013545
X021359Y013545
X014363Y013545
X013364Y012530
X009364Y012545
X007364Y012545
X008364Y012545
X006364Y012545
X023367Y013545
X022363Y013545
X014364Y012545
X012364Y012545
X010364Y012545
X019364Y012545
X017364Y012545
X015364Y012545
X011364Y012545
X005363Y012545
X018364Y012545
X016364Y012545
T106
X012364Y004545
X011364Y004545
X012364Y002545
X011364Y002545
X012364Y003545
X011364Y003545
X012364Y001545
X011364Y001545
T00
M30
