; NON-PLATED HOLES START AT T1
; THROUGH (PLATED) HOLES START AT T100
M48
INCH
T100C0.015748
T101C0.035000
T102C0.033944
T103C0.036000
%
T100
X012360Y000518
X012360Y013718
X011880Y011558
X009240Y001958
X009240Y019478
X001080Y002678
T101
X010848Y004620
X001848Y012619
X007848Y019619
X010848Y005620
X014848Y003620
X010848Y019619
X010848Y006620
X007848Y001620
X014848Y004620
X015848Y009620
X010848Y001620
X014848Y005620
X001848Y009620
X014848Y006620
X015848Y012619
X010848Y003620
T102
X012848Y009619
X011848Y009619
X010848Y009619
X013848Y008619
X012848Y008619
X011848Y008619
X010848Y008619
X013848Y009619
T103
X002848Y007620
X002848Y013619
X008848Y009620
X008848Y015619
X002848Y004620
X008848Y006620
X008848Y012619
X008848Y010620
X008848Y003620
X002848Y009620
X002848Y015619
X008848Y017619
X002848Y006620
X002848Y012619
X008848Y008620
X008848Y014619
X002848Y010620
X002848Y003620
X008848Y005620
X008848Y011619
X002848Y017619
X002848Y008620
X002848Y014619
X008848Y016619
X002848Y005620
X002848Y011619
X008848Y007620
X008848Y013619
X008848Y004620
X002848Y016619
T00
M30
