G04 MADE WITH FRITZING*
G04 WWW.FRITZING.ORG*
G04 DOUBLE SIDED*
G04 HOLES PLATED*
G04 CONTOUR ON CENTER OF CONTOUR VECTOR*
%ASAXBY*%
%FSLAX23Y23*%
%MOIN*%
%OFA0B0*%
%SFA1.0B1.0*%
%ADD10C,0.070000*%
%ADD11C,0.067278*%
%ADD12C,0.075000*%
%ADD13C,0.039370*%
%ADD14R,0.069972X0.070000*%
%ADD15C,0.024000*%
%LNCOPPER1*%
G90*
G70*
G54D10*
X285Y1762D03*
X285Y1662D03*
X285Y1562D03*
X285Y1462D03*
X285Y1362D03*
X285Y1262D03*
X285Y1162D03*
X285Y1062D03*
X285Y962D03*
X285Y862D03*
X285Y762D03*
X285Y662D03*
X285Y562D03*
X285Y462D03*
X285Y362D03*
X885Y1762D03*
X885Y1662D03*
X885Y1562D03*
X885Y1462D03*
X885Y1362D03*
X885Y1262D03*
X885Y1162D03*
X885Y1062D03*
X885Y962D03*
X885Y862D03*
X885Y762D03*
X885Y662D03*
X885Y562D03*
X885Y462D03*
X885Y362D03*
G54D11*
X1085Y962D03*
X1185Y962D03*
X1285Y962D03*
X1385Y962D03*
X1085Y862D03*
X1185Y862D03*
X1285Y862D03*
X1385Y862D03*
G54D12*
X785Y162D03*
X1085Y162D03*
X1085Y662D03*
X1485Y662D03*
X185Y1262D03*
X185Y962D03*
X785Y1962D03*
X1085Y1962D03*
X1085Y462D03*
X1485Y462D03*
X1585Y1262D03*
X1585Y962D03*
X1085Y362D03*
X1485Y362D03*
X1085Y562D03*
X1485Y562D03*
G54D13*
X1236Y1372D03*
X1236Y52D03*
X924Y1948D03*
X1188Y1156D03*
X108Y268D03*
X924Y196D03*
G54D14*
X285Y1762D03*
G54D15*
X309Y646D02*
X828Y292D01*
X828Y292D02*
X948Y316D01*
X948Y316D02*
X948Y652D01*
X948Y652D02*
X1164Y843D01*
D02*
X1063Y880D02*
X1020Y916D01*
X1020Y916D02*
X1020Y1036D01*
X1020Y1036D02*
X1428Y1036D01*
X1428Y1036D02*
X1481Y690D01*
D02*
X906Y1642D02*
X1020Y1540D01*
X1020Y1540D02*
X1020Y1036D01*
D02*
X1566Y983D02*
X1476Y1084D01*
X1476Y1084D02*
X1116Y1084D01*
X1116Y1084D02*
X1068Y1108D01*
X1068Y1108D02*
X1068Y1828D01*
X1068Y1828D02*
X828Y1828D01*
X828Y1828D02*
X828Y1108D01*
X828Y1108D02*
X862Y1080D01*
D02*
X1107Y380D02*
X1260Y508D01*
X1260Y508D02*
X1260Y652D01*
X1260Y652D02*
X1404Y652D01*
X1404Y652D02*
X1428Y292D01*
X1428Y292D02*
X1548Y316D01*
X1548Y316D02*
X1583Y933D01*
D02*
X1063Y544D02*
X1020Y508D01*
X1020Y508D02*
X1020Y292D01*
X1020Y292D02*
X1140Y292D01*
X1140Y292D02*
X1229Y69D01*
D02*
X262Y480D02*
X228Y508D01*
X228Y508D02*
X228Y892D01*
X228Y892D02*
X132Y892D01*
X132Y892D02*
X120Y1036D01*
X120Y1036D02*
X132Y1060D01*
X132Y1060D02*
X228Y1060D01*
X228Y1060D02*
X228Y1204D01*
X228Y1204D02*
X132Y1204D01*
X132Y1204D02*
X120Y1324D01*
X120Y1324D02*
X228Y1348D01*
X228Y1348D02*
X228Y1828D01*
X228Y1828D02*
X756Y1852D01*
X756Y1852D02*
X756Y1876D01*
X756Y1876D02*
X1116Y1876D01*
X1116Y1876D02*
X1116Y1156D01*
X1116Y1156D02*
X1169Y1156D01*
D02*
X813Y1959D02*
X905Y1950D01*
D02*
X1556Y1265D02*
X1164Y1300D01*
X1164Y1300D02*
X1164Y2020D01*
X1164Y2020D02*
X1020Y2020D01*
X1020Y2020D02*
X939Y1959D01*
D02*
X264Y382D02*
X180Y460D01*
X180Y460D02*
X84Y844D01*
X84Y844D02*
X84Y1420D01*
X84Y1420D02*
X180Y1876D01*
X180Y1876D02*
X924Y2068D01*
X924Y2068D02*
X1212Y2068D01*
X1212Y2068D02*
X1235Y1391D01*
D02*
X907Y204D02*
X780Y268D01*
X780Y268D02*
X127Y268D01*
G04 End of Copper1*
M02*